<?xml version="1.0" encoding="UTF-8" standalone="no"?>
<!-- Created with Inkscape (http://www.inkscape.org/) -->

<svg
   width="82.021149mm"
   height="82.021149mm"
   viewBox="0 0 82.021149 82.021149"
   version="1.1"
   id="svg1"
   inkscape:version="1.3 (0e150ed6c4, 2023-07-21)"
   sodipodi:docname="metealologia9.svg"
   inkscape:export-filename="metealologia7.png"
   inkscape:export-xdpi="96"
   inkscape:export-ydpi="96"
   xmlns:inkscape="http://www.inkscape.org/namespaces/inkscape"
   xmlns:sodipodi="http://sodipodi.sourceforge.net/DTD/sodipodi-0.dtd"
   xmlns:xlink="http://www.w3.org/1999/xlink"
   xmlns="http://www.w3.org/2000/svg"
   xmlns:svg="http://www.w3.org/2000/svg">
  <sodipodi:namedview
     id="namedview1"
     pagecolor="#ffffff"
     bordercolor="#666666"
     borderopacity="1.0"
     inkscape:showpageshadow="2"
     inkscape:pageopacity="0.0"
     inkscape:pagecheckerboard="0"
     inkscape:deskcolor="#d1d1d1"
     inkscape:document-units="mm"
     inkscape:zoom="2"
     inkscape:cx="70.75"
     inkscape:cy="160.75"
     inkscape:window-width="1920"
     inkscape:window-height="1057"
     inkscape:window-x="-8"
     inkscape:window-y="-8"
     inkscape:window-maximized="1"
     inkscape:current-layer="layer1" />
  <defs
     id="defs1">
    <inkscape:path-effect
       effect="powerclip"
       id="path-effect2"
       is_visible="true"
       lpeversion="1"
       inverse="true"
       flatten="false"
       hide_clip="false"
       message="Jeśli po konwersji przycięcia na ścieżki nie zostanie spłaszczony wynik, użyj reguły wypełniania w oknie dialogowym &lt;b&gt;wypełnienie i obrys&lt;/b&gt; ." />
    <linearGradient
       id="swatch201"
       inkscape:swatch="solid">
      <stop
         style="stop-color:#ffffff;stop-opacity:1;"
         offset="0"
         id="stop201" />
    </linearGradient>
    <rect
       x="197.9899"
       y="306.88434"
       width="215.66757"
       height="45.254833"
       id="rect193" />
    <rect
       x="69.5"
       y="389"
       width="134"
       height="59.5"
       id="rect192" />
    <rect
       x="368"
       y="300"
       width="193"
       height="60"
       id="rect190" />
    <linearGradient
       inkscape:collect="always"
       xlink:href="#swatch201"
       id="linearGradient201"
       x1="93.705559"
       y1="148.06909"
       x2="115.56632"
       y2="148.06909"
       gradientUnits="userSpaceOnUse" />
    <clipPath
       clipPathUnits="userSpaceOnUse"
       id="clipPath2">
      <rect
         style="display:none;fill:#808080;fill-rule:evenodd;stroke:none;stroke-width:0.308999"
         id="rect2"
         width="0.94257814"
         height="1.045931"
         x="84.719269"
         y="150.94145"
         d="m 84.719269,150.94145 h 0.942578 v 1.04593 h -0.942578 z" />
      <path
         id="lpe_path-effect2"
         style="fill:#808080;fill-rule:evenodd;stroke:none;stroke-width:0.308999"
         class="powerclip"
         d="m 80.32252,127.04195 h 49.85378 v 30.59564 H 80.32252 Z m 4.396749,23.8995 v 1.04593 h 0.942578 v -1.04593 z" />
    </clipPath>
  </defs>
  <g
     inkscape:label="Warstwa 1"
     inkscape:groupmode="layer"
     id="layer1"
     style="display:inline"
     transform="translate(-63.989426,-107.48943)">
    <g
       id="g196"
       style="display:inline;fill:#2b436c;fill-opacity:1">
      <rect
         style="display:inline;fill:#2b436c;fill-opacity:1;fill-rule:evenodd;stroke-width:0.597994"
         id="rect21"
         width="9.8263702"
         height="82.021141"
         x="100.08681"
         y="107.48943"
         inkscape:tile-cx="105"
         inkscape:tile-cy="148.5"
         inkscape:tile-w="9.82637"
         inkscape:tile-h="82.021139"
         inkscape:tile-x0="100.08681"
         inkscape:tile-y0="107.48943" />
      <circle
         style="fill:#2b436c;fill-opacity:1;fill-rule:evenodd;stroke-width:0.264583"
         id="path20"
         cx="105"
         cy="148.5"
         r="35.874561" />
      <use
         x="0"
         y="0"
         inkscape:tiled-clone-of="#rect21"
         xlink:href="#rect21"
         id="use163"
         style="fill:#2b436c;fill-opacity:1" />
      <use
         x="0"
         y="0"
         inkscape:tiled-clone-of="#rect21"
         xlink:href="#rect21"
         transform="rotate(30,105,148.5)"
         id="use164"
         style="fill:#2b436c;fill-opacity:1" />
      <use
         x="0"
         y="0"
         inkscape:tiled-clone-of="#rect21"
         xlink:href="#rect21"
         transform="rotate(60,105,148.5)"
         id="use165"
         style="fill:#2b436c;fill-opacity:1" />
      <use
         x="0"
         y="0"
         inkscape:tiled-clone-of="#rect21"
         xlink:href="#rect21"
         transform="rotate(90,105,148.5)"
         id="use166"
         style="fill:#2b436c;fill-opacity:1" />
      <use
         x="0"
         y="0"
         inkscape:tiled-clone-of="#rect21"
         xlink:href="#rect21"
         transform="rotate(120,105,148.5)"
         id="use167"
         style="fill:#2b436c;fill-opacity:1" />
      <use
         x="0"
         y="0"
         inkscape:tiled-clone-of="#rect21"
         xlink:href="#rect21"
         transform="rotate(150,105,148.5)"
         id="use168"
         style="fill:#2b436c;fill-opacity:1" />
      <use
         x="0"
         y="0"
         inkscape:tiled-clone-of="#rect21"
         xlink:href="#rect21"
         transform="rotate(180,105,148.5)"
         id="use169"
         style="fill:#2b436c;fill-opacity:1" />
      <use
         x="0"
         y="0"
         inkscape:tiled-clone-of="#rect21"
         xlink:href="#rect21"
         transform="rotate(-150,105,148.5)"
         id="use170"
         style="fill:#2b436c;fill-opacity:1" />
      <use
         x="0"
         y="0"
         inkscape:tiled-clone-of="#rect21"
         xlink:href="#rect21"
         transform="rotate(-120,105,148.5)"
         id="use171"
         style="fill:#2b436c;fill-opacity:1" />
      <use
         x="0"
         y="0"
         inkscape:tiled-clone-of="#rect21"
         xlink:href="#rect21"
         transform="rotate(-90,105,148.5)"
         id="use172"
         style="fill:#2b436c;fill-opacity:1" />
      <use
         x="0"
         y="0"
         inkscape:tiled-clone-of="#rect21"
         xlink:href="#rect21"
         transform="rotate(-60,105,148.5)"
         id="use173"
         style="fill:#2b436c;fill-opacity:1" />
      <use
         x="0"
         y="0"
         inkscape:tiled-clone-of="#rect21"
         xlink:href="#rect21"
         transform="rotate(-30,105,148.5)"
         id="use174"
         style="fill:#2b436c;fill-opacity:1" />
    </g>
    <circle
       style="display:inline;fill:#ffffff;fill-rule:evenodd;stroke-width:0.202253"
       id="circle21"
       cx="105"
       cy="148.5"
       r="27.423342" />
    <path
       d="m 99.810657,123.85606 q -0.142856,0.0656 -0.203866,0.11592 -0.0576,0.0497 -0.0876,0.11531 -0.0272,0.0616 -0.0265,0.1778 0.005,0.11562 0.0485,0.3506 l 0.555059,2.94615 q 0.043,0.22821 0.0765,0.33121 0.0368,0.10231 0.0827,0.15727 0.0489,0.0543 0.1249,0.0823 0.0793,0.0274 0.2436,0.0388 l 0.0314,0.1669 -1.420265,0.26759 -0.0314,-0.16691 q 0.18515,-0.0842 0.24853,-0.15967 0.0633,-0.0754 0.0683,-0.19978 0.005,-0.12428 -0.0472,-0.40023 l -0.24578,-1.30446 q -0.0969,-0.5143 -0.18208,-1.04138 -0.0825,-0.53114 -0.0986,-0.72912 l -0.0579,0.0108 -0.71284,3.6294 -0.39169,0.0738 -1.899562,-3.19364 -0.0579,0.0108 q 0.05617,0.20457 0.172466,0.74694 0.119702,0.54175 0.228143,1.11736 l 0.234855,1.24657 q 0.043,0.2282 0.0765,0.33122 0.03693,0.10231 0.08254,0.15727 0.04902,0.0542 0.124841,0.0822 0.07923,0.0274 0.243597,0.0389 l 0.0315,0.16689 -1.243171,0.23422 -0.03145,-0.16689 q 0.200901,-0.0943 0.260235,-0.17248 0.05871,-0.0817 0.05603,-0.20805 7.17e-4,-0.12707 -0.04674,-0.37915 l -0.555056,-2.94613 q -0.04426,-0.23502 -0.08119,-0.33739 -0.03756,-0.10571 -0.08935,-0.15598 -0.04902,-0.0543 -0.120151,-0.0762 -0.07177,-0.0254 -0.236788,-0.0399 l -0.03145,-0.16689 1.215924,-0.22909 1.819837,3.08876 0.69034,-3.56168 1.151217,-0.21689 z m 4.673783,-0.45942 0.0559,1.04521 -0.3392,0.0181 q -0.061,-0.16681 -0.12319,-0.29191 -0.0622,-0.12506 -0.12552,-0.20848 -0.0635,-0.0833 -0.13899,-0.13141 -0.072,-0.0483 -0.16983,-0.0604 -0.0981,-0.0155 -0.23298,-0.009 l -1.09364,0.0584 0.0967,1.81353 0.74065,-0.0395 q 0.1523,-0.009 0.2366,-0.0543 0.084,-0.0495 0.13402,-0.15638 0.0534,-0.10695 0.0933,-0.33125 l 0.32533,-0.0173 0.0709,1.32901 -0.32532,0.0173 q -0.0596,-0.20506 -0.12397,-0.30575 -0.0645,-0.10417 -0.14998,-0.14472 -0.082,-0.0407 -0.24466,-0.032 l -0.74064,0.0395 0.10664,1.99697 1.07634,-0.0574 q 0.16962,-0.009 0.27196,-0.0422 0.10555,-0.0368 0.17807,-0.11005 0.0723,-0.0766 0.12505,-0.1941 0.0528,-0.11747 0.0844,-0.24052 0.035,-0.12691 0.0916,-0.36582 l 0.34264,-0.0183 -8.8e-4,1.21831 -3.20484,0.17104 -0.009,-0.1696 q 0.21161,-0.0669 0.28077,-0.13651 0.069,-0.073 0.083,-0.19879 0.017,-0.12599 0.003,-0.38203 l -0.15979,-2.99369 q -0.0124,-0.23882 -0.0358,-0.34518 -0.0232,-0.10989 -0.0679,-0.16644 -0.0413,-0.0604 -0.10896,-0.0913 -0.0678,-0.0345 -0.22938,-0.071 l -0.009,-0.1696 z m 1.18323,-0.0108 3.7437,0.21854 -0.0704,1.20406 -0.33908,-0.0193 q -0.0588,-0.30201 -0.12474,-0.47945 -0.0625,-0.17724 -0.14038,-0.27204 -0.0778,-0.0949 -0.17245,-0.13853 -0.0912,-0.0435 -0.2815,-0.0546 l -0.43942,-0.0249 -0.20684,3.543 q -0.0108,0.20416 10e-4,0.32645 0.0172,0.12258 0.0579,0.19779 0.0444,0.072 0.12149,0.11824 0.0774,0.0427 0.24469,0.0907 l -0.0108,0.16952 -1.5812,-0.0922 0.0108,-0.16954 q 0.10524,-0.0181 0.18641,-0.0412 0.0812,-0.0231 0.13186,-0.0584 0.0543,-0.0384 0.089,-0.099 0.0382,-0.0602 0.0618,-0.16651 0.0269,-0.10602 0.0392,-0.31365 l 0.20684,-3.543 -0.43597,-0.0249 q -0.16263,-0.009 -0.27169,0.0155 -0.10555,0.0251 -0.20143,0.12026 -0.0957,0.0916 -0.18244,0.27056 -0.0833,0.17568 -0.16502,0.44864 l -0.34254,-0.0195 z m 8.10805,0.91477 -0.17703,1.03163 -0.33472,-0.0574 q -0.0224,-0.17616 -0.0554,-0.31193 -0.033,-0.13574 -0.0765,-0.23112 -0.0435,-0.0953 -0.10635,-0.15892 -0.0596,-0.063 -0.15228,-0.0964 -0.0921,-0.0368 -0.22536,-0.0597 l -1.07943,-0.18519 -0.3071,1.78998 0.73102,0.12536 q 0.15027,0.0257 0.24272,-9e-5 0.093,-0.0297 0.16525,-0.12274 0.0757,-0.0926 0.1644,-0.30235 l 0.32109,0.0551 -0.22504,1.31174 -0.32109,-0.0551 q -0.0124,-0.21315 -0.0531,-0.32558 -0.0399,-0.11593 -0.11423,-0.17434 -0.071,-0.0579 -0.23149,-0.0854 l -0.73102,-0.12552 -0.33816,1.97102 1.06237,0.18225 q 0.16738,0.0286 0.27454,0.0194 0.11113,-0.0124 0.19803,-0.0679 0.0875,-0.0588 0.16488,-0.1616 0.0774,-0.10277 0.13542,-0.21588 0.0621,-0.11592 0.17028,-0.33649 l 0.33818,0.058 -0.27061,1.18786 -3.16319,-0.5427 0.0286,-0.16739 q 0.22117,-0.0183 0.30403,-0.0709 0.0834,-0.056 0.12506,-0.17545 0.0449,-0.11886 0.0884,-0.37166 l 0.50693,-2.9548 q 0.0404,-0.2357 0.0415,-0.34454 0.002,-0.11221 -0.0293,-0.17734 -0.0271,-0.0678 -0.0861,-0.11314 -0.0585,-0.0488 -0.20798,-0.1201 l 0.0286,-0.16737 z m 1.92378,3.76927 -1.5555,-0.40814 0.13635,-0.51962 1.55548,0.40815 z"
       id="text193"
       style="font-size:4.58611px;line-height:1.25;font-family:'Cambria Math';-inkscape-font-specification:'Cambria Math, Normal';white-space:pre;display:inline;stroke-width:1.54774"
       aria-label="METE-" />
    <path
       d="m 95.862901,171.17005 -1.531033,-0.36414 0.121648,-0.51144 1.531032,0.36412 z m 1.473862,1.51729 0.87672,0.14498 q 0.14388,0.0238 0.24369,0.0231 0.0998,-0.001 0.17227,-0.0231 0.0763,-0.0251 0.13986,-0.0766 0.0674,-0.0541 0.13414,-0.14629 0.0668,-0.0922 0.13516,-0.23547 0.0723,-0.14625 0.18957,-0.43963 l 0.33798,0.056 -0.28937,1.33411 -3.00827,-0.49746 0.0271,-0.16397 q 0.21631,-0.0196 0.2971,-0.0712 0.0813,-0.0553 0.12134,-0.17245 0.0434,-0.11665 0.0843,-0.3642 l 0.47864,-2.8945 q 0.0382,-0.23089 0.0386,-0.33739 9e-4,-0.10988 -0.0298,-0.17336 -0.0268,-0.0664 -0.0849,-0.11024 -0.0575,-0.0473 -0.20423,-0.11632 l 0.0271,-0.16397 1.40877,0.23296 -0.0271,0.16397 q -0.15387,0.0164 -0.22299,0.0387 -0.0652,0.0201 -0.11422,0.0671 -0.049,0.047 -0.0874,0.15399 -0.0383,0.10713 -0.0782,0.34804 z m 4.364737,0.89888 q -0.40604,-0.0277 -0.73203,-0.18267 -0.32233,-0.15803 -0.54338,-0.45532 -0.21743,-0.30043 -0.31929,-0.74935 -0.0985,-0.44869 -0.0566,-1.06116 0.0516,-0.75458 0.31876,-1.28024 0.26712,-0.52565 0.71268,-0.77735 0.44919,-0.25485 1.01427,-0.21618 0.60232,0.0412 0.99346,0.33651 0.39476,0.29219 0.56578,0.82401 0.17461,0.52869 0.12391,1.26974 -0.0542,0.79181 -0.32832,1.32038 -0.27411,0.5286 -0.72575,0.76967 -0.44826,0.24129 -1.0235,0.20196 z m -0.94777,-2.49556 q -0.0711,1.03882 0.19306,1.60083 0.2675,0.56222 0.84951,0.60204 0.36884,0.0252 0.64198,-0.19065 0.27337,-0.21928 0.43296,-0.66392 0.15961,-0.44462 0.20103,-1.05032 0.0505,-0.73766 -0.0688,-1.23195 -0.11558,-0.49745 -0.36107,-0.73521 -0.24551,-0.23778 -0.59065,-0.26138 -0.30454,-0.0208 -0.5342,0.10629 -0.22628,0.12732 -0.38984,0.38129 -0.15995,0.25082 -0.25309,0.6184 -0.0897,0.36782 -0.12098,0.82462 z m 6.92396,2.4515 -0.26198,0.0801 -0.25642,-0.25602 q -0.21573,0.14309 -0.45422,0.21562 -0.2385,0.0725 -0.55035,0.0831 -0.85759,0.0298 -1.31137,-0.54265 -0.45387,-0.57512 -0.49314,-1.73441 -0.0245,-0.722 0.19431,-1.27579 0.21878,-0.55379 0.65296,-0.86035 0.43407,-0.30997 1.03404,-0.3303 0.31526,-0.0102 0.60802,0.0167 0.29267,0.024 0.65157,0.10017 l 0.0318,0.93217 -0.3356,0.0108 q -0.10183,-0.30198 -0.233,-0.46722 -0.13134,-0.16861 -0.30998,-0.23382 -0.17539,-0.0688 -0.44317,-0.0596 -0.36947,0.0132 -0.6394,0.25922 -0.26991,0.2467 -0.41011,0.71637 -0.13698,0.46618 -0.11478,1.1204 0.0229,0.66438 0.16735,1.1312 0.14821,0.46669 0.41395,0.69863 0.26566,0.22855 0.64192,0.2158 0.39997,-0.0141 0.58732,-0.19299 0.18725,-0.1828 0.17495,-0.5455 l -0.007,-0.20339 q -0.01,-0.30508 -0.0488,-0.43952 -0.0351,-0.13449 -0.11903,-0.20637 -0.084,-0.0718 -0.27191,-0.11294 l -0.006,-0.1661 1.36942,-0.047 0.006,0.16609 q -0.12059,0.0448 -0.17983,0.10118 -0.0593,0.0529 -0.0906,0.13206 -0.0278,0.0789 -0.0375,0.19471 -0.006,0.11213 0.001,0.32234 z m 1.9298,-1.04125 q 0.0249,0.22588 0.0498,0.32892 0.0283,0.1027 0.0688,0.15963 0.0437,0.0567 0.11567,0.0897 0.0753,0.0326 0.23478,0.0561 l 0.0182,0.1652 -1.42273,0.15632 -0.0182,-0.1652 q 0.20308,-0.077 0.26684,-0.14875 0.0634,-0.0752 0.0703,-0.19881 0.0102,-0.12392 -0.0179,-0.37342 l -0.32047,-2.91623 q -0.0255,-0.23264 -0.0538,-0.3353 -0.0287,-0.10602 -0.0755,-0.1589 -0.0438,-0.0567 -0.11154,-0.0833 -0.0681,-0.0301 -0.22804,-0.0569 l -0.0182,-0.16519 1.42272,-0.15632 0.0182,0.1652 q -0.14428,0.0534 -0.20763,0.0979 -0.06,0.0441 -0.0942,0.10594 -0.0311,0.058 -0.0392,0.1715 -0.004,0.11315 0.0217,0.34571 z m 3.55603,0.29435 -0.0307,-0.16332 q 0.16039,-0.0647 0.23285,-0.11978 0.0757,-0.0557 0.10269,-0.13314 0.0263,-0.0809 0.004,-0.20085 -0.0213,-0.11335 -0.0725,-0.2383 -0.0517,-0.12827 -0.1325,-0.28224 l -0.20423,-0.40677 -1.55326,0.29231 -0.0519,0.34799 q -0.0403,0.26295 -0.043,0.39464 -0.002,0.13173 0.0171,0.23499 0.0376,0.19999 0.15517,0.2745 0.12082,0.0739 0.33652,0.0643 l 0.0307,0.16334 -1.42328,0.26783 -0.0307,-0.16332 q 0.18101,-0.0652 0.28255,-0.2775 0.10488,-0.21301 0.16962,-0.58412 l 0.69555,-3.95138 0.52663,-0.0991 1.83269,3.5032 q 0.1289,0.24494 0.21464,0.37032 0.0891,0.12466 0.19013,0.18509 0.10106,0.0604 0.25798,0.0688 l 0.0307,0.16332 z m -1.61866,-1.55903 1.39328,-0.2622 -1.0379,-2.03071 z"
       id="text194"
       style="font-size:4.58611px;line-height:1.25;font-family:Cambria;-inkscape-font-specification:'Cambria, Normal';display:inline;stroke-width:0.400739"
       aria-label="-LOGIA" />
  </g>
  <g
     inkscape:groupmode="layer"
     id="layer2"
     inkscape:label="Warstwa 2"
     transform="translate(-65.358805,-104.64552)">
    <g
       id="g191"
       transform="translate(1.4258627,-0.50646901)"
       style="display:inline;stroke:#2b436c;stroke-opacity:1">
      <path
         id="path182"
         style="display:inline;fill:#2b436c;fill-opacity:1;fill-rule:evenodd;stroke:#2b436c;stroke-width:1.41365;stroke-dasharray:none;stroke-opacity:1"
         d="m 101.34639,132.7488 a 8.4382544,8.7115345 0 0 0 -8.43824,8.71162 8.4382544,8.7115345 0 0 0 0.343649,2.45928 c -0.03549,0.0739 -0.0753,0.14771 -0.108004,0.22169 l -0.259416,0.58705 0.735873,0.67437 c 0.129738,0.11888 0.265883,0.23163 0.403076,0.34313 a 8.4382544,8.7115345 0 0 0 0.468188,0.76068 c -0.440296,-0.29553 -0.85523,-0.6306 -1.252637,-1.01234 l -0.636653,-0.61133 -0.560173,0.0444 c -1.227497,0.0971 -2.384079,0.6534 -3.35535,1.61385 -1.082804,1.07077 -1.816046,2.44448 -2.378667,4.45813 l -0.05426,0.1943 h 19.102194 19.10219 l 0.007,-0.23719 c 0.0366,-1.18004 -0.17635,-2.55242 -0.54983,-3.54552 -0.69048,-1.83601 -1.89292,-2.9174 -3.76825,-3.38894 -0.62362,-0.15682 -0.89598,-0.17751 -1.83193,-0.13953 l -1.09967,0.0444 v -0.36268 c 0,-0.90843 -0.46232,-2.87937 -0.95188,-4.05609 -0.93365,-2.24416 -2.55378,-3.81205 -4.57957,-4.4328 -0.66938,-0.20517 -1.54313,-0.31725 -2.37556,-0.31575 h -5.2e-4 c -0.27735,5.5e-4 -0.55012,0.0137 -0.80925,0.0403 -0.48533,0.0498 -0.89306,0.10086 -0.90589,0.11369 -0.0128,0.0128 0.11441,0.38926 0.28215,0.83613 0.0441,0.11745 0.0815,0.2346 0.12093,0.35191 a 8.4382544,8.7115345 0 0 0 -0.54106,-0.64699 c -0.0692,-0.17721 -0.12965,-0.31942 -0.15606,-0.34726 -0.0288,-0.0304 -0.10472,-0.0418 -0.21911,-0.0362 a 8.4382544,8.7115345 0 0 0 -5.7335,-2.32234 z m -15.08848,18.93683 v 0.24495 h 38.01163 c 0.0285,-0.0445 0.0571,-0.0824 0.10749,-0.11782 v -0.12713 z m 38.11912,0.23513 c -0.002,0.003 -0.005,0.007 -0.007,0.01 h 0.007 z"
         inkscape:label="path182"
         clip-path="url(#clipPath2)"
         inkscape:path-effect="#path-effect2"
         inkscape:original-d="m 101.34639,132.7488 a 8.4382544,8.7115345 0 0 0 -8.43824,8.71162 8.4382544,8.7115345 0 0 0 0.343649,2.45928 c -0.03549,0.0739 -0.0753,0.14771 -0.108004,0.22169 l -0.259416,0.58705 0.735873,0.67437 c 0.129738,0.11888 0.265883,0.23163 0.403076,0.34313 a 8.4382544,8.7115345 0 0 0 0.468188,0.76068 c -0.440296,-0.29553 -0.85523,-0.6306 -1.252637,-1.01234 l -0.636653,-0.61133 -0.560173,0.0444 c -1.227497,0.0971 -2.384079,0.6534 -3.35535,1.61385 -1.082804,1.07077 -1.816046,2.44448 -2.378667,4.45813 l -0.05426,0.1943 h 19.102194 19.10219 l 0.007,-0.23719 c 0.0366,-1.18004 -0.17635,-2.55242 -0.54983,-3.54552 -0.69048,-1.83601 -1.89292,-2.9174 -3.76825,-3.38894 -0.62362,-0.15682 -0.89598,-0.17751 -1.83193,-0.13953 l -1.09967,0.0444 v -0.36268 c 0,-0.90843 -0.46232,-2.87937 -0.95188,-4.05609 -0.93365,-2.24416 -2.55378,-3.81205 -4.57957,-4.4328 -0.66938,-0.20517 -1.54313,-0.31725 -2.37556,-0.31575 h -5.2e-4 c -0.27735,5.5e-4 -0.55012,0.0137 -0.80925,0.0403 -0.48533,0.0498 -0.89306,0.10086 -0.90589,0.11369 -0.0128,0.0128 0.11441,0.38926 0.28215,0.83613 0.0441,0.11745 0.0815,0.2346 0.12093,0.35191 a 8.4382544,8.7115345 0 0 0 -0.54106,-0.64699 c -0.0692,-0.17721 -0.12965,-0.31942 -0.15606,-0.34726 -0.0288,-0.0304 -0.10472,-0.0418 -0.21911,-0.0362 a 8.4382544,8.7115345 0 0 0 -5.7335,-2.32234 z m -15.08848,18.93683 v 0.24495 h 38.01163 c 0.0285,-0.0445 0.0571,-0.0824 0.10749,-0.11782 v -0.12713 z m 38.11912,0.23513 c -0.002,0.003 -0.005,0.007 -0.007,0.01 h 0.007 z" />
      <rect
         style="display:inline;fill:#000000;fill-rule:evenodd;stroke:#2b436c;stroke-width:5.93129;stroke-dasharray:none;stroke-opacity:1"
         id="rect184"
         width="36.848991"
         height="0.41258478"
         x="88.414192"
         y="151.67587"
         ry="0.20629239"
         inkscape:label="rect184" />
    </g>
    <path
       style="font-size:12.3533px;line-height:1.25;font-family:'Cambria Math';-inkscape-font-specification:'Cambria Math, Normal';display:inline;fill:#ffffff;stroke:#ffffff;stroke-width:0.309"
       d="m 98.625164,152.18585 v -0.29556 q 0.301594,-0.0603 0.44636,-0.1327 0.150797,-0.0724 0.223179,-0.19905 0.07238,-0.13271 0.07238,-0.34985 0,-0.20509 -0.04825,-0.44033 -0.04825,-0.24128 -0.138733,-0.53684 l -0.22318,-0.77811 h -2.81086 l -0.205085,0.59112 q -0.156829,0.44636 -0.205084,0.67557 -0.04825,0.22922 -0.04825,0.4162 0,0.36192 0.180957,0.53081 0.186988,0.16889 0.566997,0.22318 v 0.29556 H 93.85998 v -0.29556 q 0.337786,-0.0543 0.585093,-0.39207 0.253339,-0.33779 0.488583,-0.9651 l 2.515296,-6.6773 h 0.953037 l 2.050851,6.72555 q 0.14476,0.47049 0.25333,0.71779 0.11461,0.24731 0.27144,0.38605 0.15683,0.13873 0.42826,0.20508 v 0.29556 z m -2.316244,-3.25722 h 2.521328 l -1.146058,-3.89056 z m 7.7751,2.70229 h 1.58035 q 0.25937,0 0.4343,-0.0302 0.17492,-0.0302 0.29556,-0.0905 0.12667,-0.0663 0.22318,-0.17492 0.10254,-0.11461 0.19302,-0.29557 0.0905,-0.18095 0.16889,-0.45239 0.0845,-0.27746 0.20509,-0.82637 h 0.60922 l -0.12064,2.42482 h -5.42266 v -0.29556 q 0.37397,-0.0965 0.50064,-0.21112 0.12667,-0.12063 0.16286,-0.33778 0.0422,-0.21715 0.0422,-0.66351 v -5.21758 q 0,-0.4162 -0.0302,-0.60319 -0.0302,-0.19302 -0.10254,-0.29556 -0.0663,-0.10857 -0.18096,-0.16889 -0.11461,-0.0663 -0.39207,-0.14477 v -0.29556 h 2.53942 v 0.29556 q -0.2654,0.0724 -0.38001,0.1327 -0.10857,0.0543 -0.18096,0.1508 -0.0724,0.0965 -0.10857,0.29556 -0.0362,0.19905 -0.0362,0.63335 z m 7.91987,0.65144 q -0.72383,0 -1.32099,-0.23524 -0.59112,-0.24128 -1.01939,-0.74192 -0.42223,-0.50668 -0.65747,-1.29083 -0.22921,-0.78414 -0.22921,-1.87591 0,-1.34511 0.41016,-2.31021 0.41017,-0.96511 1.17019,-1.46575 0.76605,-0.50668 1.77337,-0.50668 1.07368,0 1.80354,0.47652 0.73589,0.47049 1.10383,1.39336 0.37398,0.91685 0.37398,2.23783 0,1.41146 -0.42223,2.3826 -0.42223,0.97113 -1.19432,1.45368 -0.76604,0.48255 -1.79146,0.48255 z m -1.98449,-4.3128 q 0,1.85179 0.53683,2.81689 0.54287,0.96511 1.58036,0.96511 0.65747,0 1.1159,-0.4162 0.45842,-0.42224 0.68763,-1.23051 0.22921,-0.80827 0.22921,-1.88798 0,-1.31495 -0.27143,-2.17751 -0.26541,-0.86859 -0.72986,-1.26066 -0.46446,-0.39208 -1.07971,-0.39208 -0.54287,0 -0.93494,0.25334 -0.38604,0.25334 -0.64541,0.72383 -0.25334,0.46446 -0.37398,1.12796 -0.1146,0.66351 -0.1146,1.47781 z"
       id="text191"
       transform="scale(1.0165664,0.98370358)"
       aria-label="ALO" />
  </g>
</svg>
